<?xml version="1.0" encoding="utf-8"?>
<svg width="800" height="400" viewBox="0 0 400 240" xmlns="http://www.w3.org/2000/svg">
  <defs>
    <marker markerUnits="strokeWidth" refX="0" refY="5" markerWidth="4" markerHeight="3" orient="auto" viewBox="0 0 10 10" id="ArrowEnd">
      <path d="M 0,0 L 10,5 L 0,10 L 0,0 z" id="path7"/>
    </marker>
    <marker markerUnits="strokeWidth" refX="10" refY="5" markerWidth="4" markerHeight="3" orient="auto" viewBox="0 0 10 10" id="ArrowStart">
      <path d="M 10,0 L 0,5 L 10,10 L 10,0 z" id="path10"/>
    </marker>
    <pattern id="pattern-0" x="0" y="0" width="20" height="20" patternUnits="userSpaceOnUse" viewBox="0 0 100 100">
      <path d="M 0 0 L 50 0 L 50 100 L 0 100 Z" style="fill: black;"/>
    </pattern>
  </defs>
  <path d="M -115.888 1072.942 L -115.888 1072.942 L -115.888 1072.942 Z" style="fill:#000000;fill-rule:evenodd;stroke:none" id="path14"/>
  <path d="M 344.082 194.745 L 360.684 188.816 L 344.082 182.887 L 350.723 188.816" style="fill:#000000;fill-rule:evenodd;stroke:none" id="path18"/>
  <path d="M 15.965 188.816 L 350.723 188.816" style="fill:none;stroke:#000000;stroke-width:0.99626398" id="path20"/>
  <path d="M 189.273 28.077 L 183.344 11.476 L 177.415 28.077 L 183.344 21.437" style="fill:#000000;fill-rule:evenodd;stroke:none" id="path24"/>
  <path d="M 183.344 221.437 L 183.344 21.437" style="fill:none;stroke:#000000;stroke-width:0.99626398" id="path26"/>
  <path d="M 244.495 194.004 L 244.495 183.628" style="fill:none;stroke:#000000;stroke-width:0.99626398" id="path28"/>
  <path d="M 305.647 194.004 L 305.647 183.628" style="fill:none;stroke:#000000;stroke-width:0.99626398" id="path30"/>
  <path d="M 247.588 207.917 C 247.588 206.152 246.355 204.648 244.731 204.648 C 244.011 204.648 243.367 204.892 242.827 205.428 L 242.827 202.537 C 243.129 202.626 243.626 202.714 244.109 202.714 C 245.932 202.714 247.011 201.379 247.011 201.187 C 247.011 201.098 246.954 201.024 246.823 201.024 C 246.808 201.024 246.779 201.024 246.704 201.068 C 246.408 201.202 245.682 201.522 244.688 201.522 C 244.095 201.522 243.413 201.412 242.717 201.083 C 242.598 201.038 242.568 201.038 242.538 201.038 C 242.389 201.038 242.381 201.157 242.381 201.394 L 242.381 205.782 C 242.381 206.048 242.389 206.167 242.598 206.167 C 242.702 206.167 242.732 206.122 242.79 206.033 C 242.953 205.796 243.501 204.944 244.702 204.944 C 245.472 204.944 245.843 205.663 245.962 205.944 C 246.198 206.493 246.249 207.07 246.249 207.811 C 246.249 208.33 246.23 209.218 245.872 209.842 C 245.517 210.421 244.968 210.775 244.286 210.775 C 243.205 210.775 242.36 210.004 242.107 209.146 C 242.151 209.16 242.196 209.259 242.358 209.259 C 242.848 209.259 243.123 208.847 243.123 208.449 C 243.123 208.094 242.863 207.771 242.358 207.771 C 242.151 207.771 241.635 207.869 241.635 208.509 C 241.635 209.784 242.657 211.221 244.315 211.221 C 246.035 211.221 247.586 209.799 247.586 207.915 L 247.588 207.917 Z" style="fill:#000000;fill-rule:evenodd;stroke:none" id="path32"/>
  <path d="M 302.489 201.409 C 302.489 201.053 302.532 201.076 302.191 201.076 C 301.272 201.971 299.968 201.968 299.494 201.968 L 299.494 202.415 C 299.791 202.415 300.672 202.431 301.447 202.046 L 301.447 209.724 C 301.447 210.258 301.403 210.449 300.056 210.449 L 299.582 210.449 L 299.582 210.895 C 300.101 210.851 301.389 210.851 301.983 210.851 C 302.577 210.851 303.865 210.851 304.384 210.895 L 304.384 210.449 L 303.91 210.449 C 302.575 210.449 302.487 210.282 302.487 209.724 L 302.489 201.409 Z" style="fill:#000000;fill-rule:evenodd;stroke:none" id="path34"/>
  <path d="M 312.457 206.152 C 312.457 204.966 312.38 203.78 311.838 202.684 C 311.157 201.262 309.941 201.076 309.318 201.076 C 308.428 201.076 307.347 201.449 306.74 202.787 C 306.265 203.809 306.208 204.966 306.208 206.152 C 306.208 207.263 306.266 208.598 306.859 209.724 C 307.495 210.925 308.578 211.221 309.305 211.221 C 310.105 211.221 311.231 210.91 311.883 209.501 C 312.358 208.479 312.457 207.323 312.457 206.151 L 312.457 206.152 Z M 309.305 210.924 C 308.726 210.924 307.852 210.547 307.585 209.101 C 307.421 208.211 307.399 206.848 307.399 205.974 C 307.399 205.024 307.421 204.047 307.54 203.246 C 307.821 201.482 308.933 201.373 309.305 201.373 C 309.794 201.373 310.772 201.637 311.054 203.084 C 311.203 203.914 311.268 205.041 311.268 205.975 C 311.268 207.086 311.203 208.095 311.039 209.043 C 310.818 210.45 309.973 210.925 309.305 210.925 L 309.305 210.924 Z" style="fill:#000000;fill-rule:evenodd;stroke:none" id="path36"/>
  <path d="M 122.192 194.004 L 122.192 183.628" style="fill:none;stroke:#000000;stroke-width:0.99626398" id="path38"/>
  <path d="M 61.04 194.004 L 61.04 183.628" style="fill:none;stroke:#000000;stroke-width:0.99626398" id="path40"/>
  <path d="M 122.439 207.473 C 122.646 207.473 122.908 207.487 122.908 207.189 C 122.908 206.893 122.639 206.878 122.439 206.878 L 114.36 206.878 C 114.154 206.878 113.831 206.893 113.831 207.189 C 113.831 207.485 114.136 207.473 114.36 207.473 L 122.439 207.473 Z" style="fill:#000000;fill-rule:evenodd;stroke:none" id="path42"/>
  <path d="M 130.942 207.917 C 130.942 206.152 129.709 204.648 128.086 204.648 C 127.366 204.648 126.721 204.892 126.181 205.428 L 126.181 202.537 C 126.483 202.626 126.98 202.714 127.464 202.714 C 129.286 202.714 130.365 201.379 130.365 201.187 C 130.365 201.098 130.309 201.024 130.178 201.024 C 130.163 201.024 130.133 201.024 130.059 201.068 C 129.762 201.202 129.036 201.522 128.043 201.522 C 127.449 201.522 126.767 201.412 126.071 201.083 C 125.952 201.038 125.922 201.038 125.893 201.038 C 125.744 201.038 125.735 201.157 125.735 201.394 L 125.735 205.782 C 125.735 206.048 125.744 206.167 125.952 206.167 C 126.056 206.167 126.086 206.122 126.144 206.033 C 126.308 205.796 126.855 204.944 128.056 204.944 C 128.827 204.944 129.197 205.663 129.316 205.944 C 129.553 206.493 129.603 207.07 129.603 207.811 C 129.603 208.33 129.584 209.218 129.227 209.842 C 128.871 210.421 128.322 210.775 127.641 210.775 C 126.559 210.775 125.714 210.004 125.461 209.146 C 125.506 209.16 125.55 209.259 125.713 209.259 C 126.202 209.259 126.477 208.847 126.477 208.449 C 126.477 208.094 126.217 207.771 125.713 207.771 C 125.506 207.771 124.99 207.869 124.99 208.509 C 124.99 209.784 126.012 211.221 127.669 211.221 C 129.389 211.221 130.941 209.799 130.941 207.915 L 130.942 207.917 Z" style="fill:#000000;fill-rule:evenodd;stroke:none" id="path44"/>
  <path d="M 57.57 207.473 C 57.777 207.473 58.039 207.487 58.039 207.189 C 58.039 206.893 57.769 206.878 57.57 206.878 L 49.491 206.878 C 49.284 206.878 48.962 206.893 48.962 207.189 C 48.962 207.485 49.267 207.473 49.491 207.473 L 57.57 207.473 Z" style="fill:#000000;fill-rule:evenodd;stroke:none" id="path46"/>
  <path d="M 63.693 201.409 C 63.693 201.053 63.736 201.076 63.395 201.076 C 62.475 201.971 61.172 201.968 60.698 201.968 L 60.698 202.415 C 60.995 202.415 61.876 202.431 62.651 202.046 L 62.651 209.724 C 62.651 210.258 62.606 210.449 61.26 210.449 L 60.785 210.449 L 60.785 210.895 C 61.305 210.851 62.593 210.851 63.187 210.851 C 63.78 210.851 65.069 210.851 65.588 210.895 L 65.588 210.449 L 65.113 210.449 C 63.779 210.449 63.691 210.282 63.691 209.724 L 63.693 201.409 Z" style="fill:#000000;fill-rule:evenodd;stroke:none" id="path48"/>
  <path d="M 73.81 206.152 C 73.81 204.966 73.732 203.78 73.191 202.684 C 72.509 201.262 71.294 201.076 70.67 201.076 C 69.781 201.076 68.699 201.449 68.092 202.787 C 67.617 203.809 67.561 204.966 67.561 206.152 C 67.561 207.263 67.619 208.598 68.211 209.724 C 68.848 210.925 69.931 211.221 70.657 211.221 C 71.457 211.221 72.584 210.91 73.235 209.501 C 73.71 208.479 73.81 207.323 73.81 206.151 L 73.81 206.152 Z M 70.657 210.924 C 70.078 210.924 69.205 210.547 68.937 209.101 C 68.773 208.211 68.751 206.848 68.751 205.974 C 68.751 205.024 68.773 204.047 68.892 203.246 C 69.174 201.482 70.285 201.373 70.657 201.373 C 71.147 201.373 72.124 201.637 72.407 203.084 C 72.556 203.914 72.621 205.041 72.621 205.975 C 72.621 207.086 72.556 208.095 72.392 209.043 C 72.17 210.45 71.325 210.925 70.657 210.925 L 70.657 210.924 Z" style="fill:#000000;fill-rule:evenodd;stroke:none" id="path50"/>
  <path d="M 188.532 127.665 L 178.156 127.665" style="fill:none;stroke:#000000;stroke-width:0.99626398" id="path52"/>
  <path d="M 188.532 66.512 L 178.156 66.512" style="fill:none;stroke:#000000;stroke-width:0.99626398" id="path54"/>
  <path d="M 170.072 129.359 C 170.072 127.595 168.839 126.091 167.216 126.091 C 166.495 126.091 165.851 126.335 165.311 126.87 L 165.311 123.979 C 165.613 124.069 166.11 124.156 166.594 124.156 C 168.416 124.156 169.495 122.822 169.495 122.63 C 169.495 122.541 169.438 122.466 169.307 122.466 C 169.293 122.466 169.263 122.466 169.188 122.511 C 168.892 122.645 168.166 122.965 167.172 122.965 C 166.579 122.965 165.897 122.855 165.201 122.526 C 165.082 122.481 165.052 122.481 165.022 122.481 C 164.874 122.481 164.865 122.6 164.865 122.837 L 164.865 127.224 C 164.865 127.491 164.874 127.61 165.082 127.61 C 165.186 127.61 165.216 127.565 165.274 127.476 C 165.438 127.239 165.985 126.387 167.186 126.387 C 167.956 126.387 168.327 127.105 168.446 127.387 C 168.683 127.936 168.733 128.513 168.733 129.254 C 168.733 129.773 168.714 130.661 168.357 131.285 C 168.001 131.863 167.452 132.217 166.771 132.217 C 165.689 132.217 164.844 131.447 164.591 130.588 C 164.636 130.603 164.68 130.701 164.842 130.701 C 165.332 130.701 165.607 130.289 165.607 129.892 C 165.607 129.536 165.347 129.214 164.842 129.214 C 164.636 129.214 164.119 129.312 164.119 129.952 C 164.119 131.226 165.142 132.664 166.799 132.664 C 168.519 132.664 170.071 131.241 170.071 129.358 L 170.072 129.359 Z" style="fill:#000000;fill-rule:evenodd;stroke:none" id="path56"/>
  <path d="M 160.104 61.851 C 160.104 61.495 160.147 61.517 159.806 61.517 C 158.887 62.413 157.583 62.41 157.109 62.41 L 157.109 62.856 C 157.406 62.856 158.287 62.873 159.062 62.487 L 159.062 70.166 C 159.062 70.7 159.018 70.891 157.671 70.891 L 157.197 70.891 L 157.197 71.337 C 157.716 71.292 159.004 71.292 159.598 71.292 C 160.192 71.292 161.48 71.292 161.999 71.337 L 161.999 70.891 L 161.525 70.891 C 160.19 70.891 160.102 70.724 160.102 70.166 L 160.104 61.851 Z" style="fill:#000000;fill-rule:evenodd;stroke:none" id="path58"/>
  <path d="M 170.221 66.594 C 170.221 65.408 170.144 64.222 169.602 63.126 C 168.921 61.703 167.705 61.517 167.082 61.517 C 166.192 61.517 165.11 61.891 164.503 63.228 C 164.029 64.251 163.972 65.408 163.972 66.594 C 163.972 67.705 164.03 69.04 164.622 70.166 C 165.259 71.367 166.342 71.663 167.068 71.663 C 167.869 71.663 168.995 71.352 169.647 69.943 C 170.121 68.921 170.221 67.765 170.221 66.592 L 170.221 66.594 Z M 167.068 71.365 C 166.489 71.365 165.616 70.989 165.348 69.543 C 165.185 68.653 165.162 67.29 165.162 66.415 C 165.162 65.466 165.185 64.489 165.304 63.688 C 165.585 61.924 166.696 61.815 167.068 61.815 C 167.558 61.815 168.535 62.078 168.818 63.526 C 168.967 64.356 169.032 65.482 169.032 66.417 C 169.032 67.528 168.967 68.537 168.803 69.485 C 168.581 70.892 167.736 71.367 167.068 71.367 L 167.068 71.365 Z" style="fill:#000000;fill-rule:evenodd;stroke:none" id="path60"/>
  <path d="M 24.348 188.816 L 342.337 188.816" style="fill:none;stroke:#000000;stroke-width:0.39850599" id="path76"/>
  <path d="M 195.574 191.336 L 195.574 186.297" style="fill:none;stroke:#000000;stroke-width:0.39850599" id="path80"/>
  <path d="M 207.803 191.336 L 207.803 186.297" style="fill:none;stroke:#000000;stroke-width:0.39850599" id="path82"/>
  <path d="M 220.035 191.336 L 220.035 186.297" style="fill:none;stroke:#000000;stroke-width:0.39850599" id="path84"/>
  <path d="M 232.265 191.336 L 232.265 186.297" style="fill:none;stroke:#000000;stroke-width:0.39850599" id="path86"/>
  <path d="M 244.495 191.336 L 244.495 186.297" style="fill:none;stroke:#000000;stroke-width:0.39850599" id="path88"/>
  <path d="M 256.726 191.336 L 256.726 186.297" style="fill:none;stroke:#000000;stroke-width:0.39850599" id="path90"/>
  <path d="M 268.956 191.336 L 268.956 186.297" style="fill:none;stroke:#000000;stroke-width:0.39850599" id="path92"/>
  <path d="M 281.186 191.336 L 281.186 186.297" style="fill:none;stroke:#000000;stroke-width:0.39850599" id="path94"/>
  <path d="M 293.416 191.336 L 293.416 186.297" style="fill:none;stroke:#000000;stroke-width:0.39850599" id="path96"/>
  <path d="M 305.647 191.336 L 305.647 186.297" style="fill:none;stroke:#000000;stroke-width:0.39850599" id="path98"/>
  <path d="M 317.877 191.336 L 317.877 186.297" style="fill:none;stroke:#000000;stroke-width:0.39850599" id="path100"/>
  <path d="M 330.107 191.336 L 330.107 186.297" style="fill:none;stroke:#000000;stroke-width:0.39850599" id="path102"/>
  <path d="M 342.337 191.336 L 342.337 186.297" style="fill:none;stroke:#000000;stroke-width:0.39850599" id="path104"/>
  <path d="M 171.114 191.336 L 171.114 186.297" style="fill:none;stroke:#000000;stroke-width:0.39850599" id="path106"/>
  <path d="M 158.882 191.336 L 158.882 186.297" style="fill:none;stroke:#000000;stroke-width:0.39850599" id="path108"/>
  <path d="M 146.652 191.336 L 146.652 186.297" style="fill:none;stroke:#000000;stroke-width:0.39850599" id="path110"/>
  <path d="M 134.422 191.336 L 134.422 186.297" style="fill:none;stroke:#000000;stroke-width:0.39850599" id="path112"/>
  <path d="M 122.192 191.336 L 122.192 186.297" style="fill:none;stroke:#000000;stroke-width:0.39850599" id="path114"/>
  <path d="M 109.961 191.336 L 109.961 186.297" style="fill:none;stroke:#000000;stroke-width:0.39850599" id="path116"/>
  <path d="M 97.731 191.336 L 97.731 186.297" style="fill:none;stroke:#000000;stroke-width:0.39850599" id="path118"/>
  <path d="M 85.501 191.336 L 85.501 186.297" style="fill:none;stroke:#000000;stroke-width:0.39850599" id="path120"/>
  <path d="M 73.271 191.336 L 73.271 186.297" style="fill:none;stroke:#000000;stroke-width:0.39850599" id="path122"/>
  <path d="M 61.04 191.336 L 61.04 186.297" style="fill:none;stroke:#000000;stroke-width:0.39850599" id="path124"/>
  <path d="M 48.81 191.336 L 48.81 186.297" style="fill:none;stroke:#000000;stroke-width:0.39850599" id="path126"/>
  <path d="M 36.58 191.336 L 36.58 186.297" style="fill:none;stroke:#000000;stroke-width:0.39850599" id="path128"/>
  <path d="M 24.348 191.336 L 24.348 186.297" style="fill:none;stroke:#000000;stroke-width:0.39850599" id="path130"/>
  <path d="M 185.864 176.586 L 180.825 176.586" style="fill:none;stroke:#000000;stroke-width:0.39850599" id="path132"/>
  <path d="M 238.914 166 L 183 166 L 183 163 L 238.914 163 L 238.914 160 L 243.75 164.5 L 238.914 169 Z" style="fill: rgb(22, 104, 247); stroke: rgb(203, 232, 227); stroke-width: 0.5;"/>
  <path d="M 185.864 164.355 L 180.825 164.355" style="fill:none;stroke:#000000;stroke-width:0.39850599" id="path134"/>
  <path d="M 183.344 221.821 L 183.344 29.821" style="fill: none; stroke: rgb(0, 0, 0); stroke-width: 0.398506;" id="path78"/>
  <path d="M 185.864 152.125 L 180.825 152.125" style="fill:none;stroke:#000000;stroke-width:0.39850599" id="path136"/>
  <path d="M 185.864 139.895 L 180.825 139.895" style="fill:none;stroke:#000000;stroke-width:0.39850599" id="path138"/>
  <path d="M 185.864 127.665 L 180.825 127.665" style="fill:none;stroke:#000000;stroke-width:0.39850599" id="path140"/>
  <path d="M 185.864 115.433 L 180.825 115.433" style="fill:none;stroke:#000000;stroke-width:0.39850599" id="path142"/>
  <path d="M 185.864 103.203 L 180.825 103.203" style="fill:none;stroke:#000000;stroke-width:0.39850599" id="path144"/>
  <path d="M 185.864 90.973 L 180.825 90.973" style="fill:none;stroke:#000000;stroke-width:0.39850599" id="path146"/>
  <path d="M 185.864 78.743 L 180.825 78.743" style="fill:none;stroke:#000000;stroke-width:0.39850599" id="path148"/>
  <path d="M 185.864 66.512 L 180.825 66.512" style="fill:none;stroke:#000000;stroke-width:0.39850599" id="path150"/>
  <path d="M 185.864 54.282 L 180.825 54.282" style="fill:none;stroke:#000000;stroke-width:0.39850599" id="path152"/>
  <path d="M 185.864 42.052 L 180.825 42.052" style="fill:none;stroke:#000000;stroke-width:0.39850599" id="path154"/>
  <path d="M 185.864 29.821 L 180.825 29.821" style="fill:none;stroke:#000000;stroke-width:0.39850599" id="path156"/>
  <path d="M 185.864 201.046 L 180.825 201.046" style="fill:none;stroke:#000000;stroke-width:0.39850599" id="path158"/>
  <path d="M 185.864 213.276 L 180.825 213.276" style="fill:none;stroke:#000000;stroke-width:0.39850599" id="path160"/>
  <path d="M 204.658 21.459 C 203.954 24.517 202.583 25.332 201.657 25.332 C 200.768 25.332 200.521 24.628 200.521 24.536 C 200.521 24.518 200.537 24.499 200.656 24.481 C 201.23 24.389 201.465 23.889 201.465 23.591 C 201.465 23.201 201.163 22.984 200.823 22.984 C 200.601 22.984 199.829 23.097 199.829 24.148 C 199.829 25.112 200.61 25.717 201.656 25.717 C 203.583 25.717 205.268 23.82 205.732 21.998 L 207.548 14.697 C 207.565 14.585 207.603 14.493 207.603 14.438 C 207.603 14.234 207.454 13.908 207.083 13.908 C 206.527 13.908 206.397 14.484 206.36 14.642 L 205.008 20.089 C 204.878 20.626 204.137 21.699 203.044 21.699 C 202.211 21.699 202.059 20.906 202.059 20.311 C 202.059 19.18 202.662 17.513 203.118 16.253 C 203.267 15.863 203.398 15.605 203.398 15.253 C 203.398 14.327 202.77 13.705 201.952 13.705 C 200.229 13.705 199.58 16.493 199.58 16.606 C 199.58 16.792 199.766 16.792 199.858 16.792 C 200.099 16.792 200.117 16.755 200.192 16.496 C 200.341 15.921 200.84 14.151 201.915 14.151 C 202.118 14.151 202.357 14.207 202.357 14.698 C 202.357 15.143 202.157 15.643 201.877 16.366 C 201.395 17.664 200.869 19.034 200.869 19.998 C 200.869 21.609 201.967 22.148 202.989 22.148 C 203.841 22.148 204.416 21.703 204.657 21.462 L 204.658 21.459 Z" style="fill:#000000;fill-rule:evenodd;stroke:none" id="path184"/>
  <path d="M 353.823 166.475 C 353.082 166.661 353.075 167.345 353.075 167.364 C 353.075 167.605 353.243 167.897 353.731 167.897 C 354.064 167.897 354.563 167.653 354.563 166.975 C 354.563 166.03 353.539 165.759 353.026 165.759 C 352.007 165.759 351.395 166.702 351.211 167.067 C 350.803 165.955 349.895 165.759 349.431 165.759 C 347.579 165.759 346.637 168.227 346.637 168.66 C 346.637 168.846 346.783 168.846 346.856 168.846 C 347.097 168.846 347.097 168.828 347.189 168.531 C 347.689 166.937 348.653 166.205 349.394 166.205 C 349.931 166.205 350.284 166.635 350.284 167.382 C 350.284 167.827 350.062 168.735 349.894 169.421 C 349.69 170.181 349.672 170.254 349.468 171.106 C 349.172 172.31 348.783 173.755 347.671 173.755 C 347.616 173.755 347.171 173.793 346.856 173.534 C 347.412 173.386 347.57 172.923 347.57 172.645 C 347.57 172.163 347.186 172.063 346.95 172.063 C 346.487 172.063 346.082 172.448 346.082 173.052 C 346.082 173.775 346.832 174.201 347.653 174.201 C 348.543 174.201 349.154 173.497 349.468 172.941 C 349.839 173.997 350.746 174.201 351.229 174.201 C 353.137 174.201 354.006 171.718 354.006 171.347 C 354.006 171.161 353.898 171.161 353.804 171.161 C 353.582 171.161 353.563 171.179 353.471 171.477 C 352.971 173.07 352.044 173.755 351.266 173.755 C 350.895 173.755 350.395 173.539 350.395 172.608 C 350.395 172.163 350.599 171.367 350.748 170.736 C 350.952 169.958 351.23 168.809 351.377 168.198 C 351.636 167.234 352.138 166.205 353.008 166.205 C 353.063 166.205 353.527 166.205 353.823 166.475 Z" style="fill:#000000;fill-rule:evenodd;stroke:none" id="path196"/>
</svg>